<?xml version="1.0" encoding="UTF-8" standalone="no"?><!DOCTYPE svg PUBLIC "-//W3C//DTD SVG 1.1//EN" "http://www.w3.org/Graphics/SVG/1.1/DTD/svg11.dtd"><svg width="100%" height="100%" viewBox="0 0 816 291" version="1.1" xmlns="http://www.w3.org/2000/svg" xmlns:xlink="http://www.w3.org/1999/xlink" xml:space="preserve" xmlns:serif="http://www.serif.com/" style="fill-rule:evenodd;clip-rule:evenodd;stroke-linejoin:round;stroke-miterlimit:1.41421;"><rect id="MCS" x="0" y="0" width="815.048" height="290.997" style="fill:none;"/><clipPath id="_clip1"><rect x="0" y="0" width="815.048" height="290.997"/></clipPath><g clip-path="url(#_clip1)"><g><path d="M532.388,103.87c5.062,0 9.172,4.11 9.172,9.172c0,5.063 -4.11,9.173 -9.172,9.173c-5.063,0 -9.173,-4.11 -9.173,-9.173c0,-5.062 4.11,-9.172 9.173,-9.172Zm143.482,-43.21l0,32.4c0,16.091 -13.064,29.155 -29.155,29.155c-16.091,0 -29.155,-13.064 -29.155,-29.155l0,-32.4l15.724,0l0,32.426c0,7.413 6.018,13.431 13.431,13.431c7.413,0 13.431,-6.018 13.431,-13.431l0,-32.426l15.724,0Zm-105.314,59.809l-14.582,0l0,-59.814l28.855,0c12.997,0 23.548,10.552 23.548,23.548c0,7.673 -3.678,14.494 -9.365,18.794l9.365,17.472l-16.344,0l-6.82,-12.722c-0.127,0.003 -0.255,0.004 -0.384,0.004l-14.273,0l0,12.718Zm-259.445,-0.655l-15.241,0l0,-59.814l15.589,0l19.259,33.604l19.259,-33.604l15.589,0l0,59.814l-15.184,0l0,-32.044l-15.399,27.492l-8.53,0l-15.342,-27.389l0,31.941Zm172.311,-13.543l26.587,0l0,13.543l-41.828,0l0,-59.814l15.241,0l0,46.271Zm-26.459,13.543l-15.241,0l0,-59.814l15.241,0l0,59.814Zm-19.74,0l-17.01,0l-3.449,-8.311l-25.745,0l-3.449,8.311l-17.01,0l24.827,-59.814l17.009,0l24.827,59.814Zm-41.355,-22.469l16.128,0l-8.064,-19.428l-8.064,19.428Zm188.895,-21.043l-14.207,0l0,15.801l14.207,0c4.36,0 7.901,-3.54 7.901,-7.9c0,-4.36 -3.54,-7.901 -7.901,-7.901Z"/><path d="M532.664,144.738l0,32.406c0,16.095 -13.066,29.161 -29.161,29.161c-16.094,0 -29.161,-13.066 -29.161,-29.161l0,-32.406l15.728,0l0,32.433c0,7.414 6.019,13.433 13.433,13.433c7.415,0 13.434,-6.019 13.434,-13.433l0,-32.433l15.727,0Zm-184.32,9.856c-5.807,-7.076 -14.619,-11.594 -24.478,-11.594c-17.469,0 -31.651,14.182 -31.651,31.651c0,17.469 14.182,31.651 31.651,31.651c10.028,0 18.974,-4.674 24.775,-11.962l-10.638,-9.299c-3.085,4.193 -7.975,6.904 -13.474,6.904c-9.323,0 -16.892,-7.79 -16.892,-17.385c0,-9.595 7.569,-17.385 16.892,-17.385c5.436,0 10.276,2.649 13.367,6.76l10.448,-9.341Zm85.445,-11.594c17.468,0 31.651,14.182 31.651,31.651c0,17.469 -14.183,31.651 -31.651,31.651c-17.469,0 -31.651,-14.182 -31.651,-31.651c0,-17.469 14.182,-31.651 31.651,-31.651Zm-61.495,48.018l26.593,0l0,13.546l-39.215,0l-2.622,0l0,-59.826l15.244,0l0,46.28Zm200.704,13.546l-28.393,0c0,0 -1.308,0 -1.308,0l0,-59.826l29.701,0c16.51,0 29.913,13.404 29.913,29.913c0,16.509 -13.403,29.913 -29.913,29.913Zm-139.209,-46.101c8.934,0 16.188,7.253 16.188,16.188c0,8.935 -7.254,16.188 -16.188,16.188c-8.935,0 -16.189,-7.253 -16.189,-16.188c0,-8.935 7.254,-16.188 16.189,-16.188Zm139.193,1.925l-14.448,0l0,29.138l14.448,0c7.975,0 14.449,-6.474 14.449,-14.448l0,-0.242c0,-7.974 -6.474,-14.447 -14.449,-14.448Z"/><path d="M292.04,280.361c6.142,5.866 14.759,9.716 27.133,9.716c16.408,0 25.483,-8.158 25.483,-20.441c0,-13.842 -13.933,-16.775 -24.016,-18.883c-6.783,-1.283 -10.542,-2.383 -10.542,-5.592c0,-2.658 2.017,-4.766 7.242,-4.766c5.408,0 12.1,2.108 17.233,6.325l8.616,-11.275c-6.508,-5.592 -15.033,-8.525 -24.841,-8.525c-15.674,0 -24.383,8.892 -24.383,19.158c0,14.483 14.117,17.05 24.2,19.066c6.508,1.375 10.45,2.75 10.45,6.233c0,2.934 -3.3,5.225 -8.708,5.225c-8.342,0 -15.125,-3.666 -19.525,-8.066l-8.342,11.825Zm238.317,-51.799l0,32.379c0,16.081 -13.056,29.136 -29.137,29.136c-16.08,0 -29.136,-13.055 -29.136,-29.136l0,-32.379l15.714,0l0,32.405c0,7.408 6.014,13.423 13.422,13.423c7.408,0 13.423,-6.015 13.423,-13.423l0,-32.405l15.714,0Zm-146.692,-1.734c17.454,0 31.624,14.171 31.624,31.625c0,17.454 -14.17,31.624 -31.624,31.624c-17.454,0 -31.625,-14.17 -31.625,-31.624c0,-17.454 14.171,-31.625 31.625,-31.625Zm377.375,53.533c6.142,5.866 14.759,9.716 27.133,9.716c16.408,0 25.483,-8.158 25.483,-20.441c0,-13.842 -13.933,-16.775 -24.016,-18.883c-6.783,-1.283 -10.542,-2.383 -10.542,-5.592c0,-2.658 2.017,-4.766 7.242,-4.766c5.408,0 12.1,2.108 17.233,6.325l8.616,-11.275c-6.508,-5.592 -15.033,-8.525 -24.841,-8.525c-15.674,0 -24.383,8.892 -24.383,19.158c0,14.483 14.117,17.05 24.2,19.066c6.508,1.375 10.45,2.75 10.45,6.233c0,2.934 -3.3,5.225 -8.708,5.225c-8.342,0 -15.125,-3.666 -19.525,-8.066l-8.342,11.825Zm-105.87,-53.533c17.454,0 31.624,14.171 31.624,31.625c0,17.454 -14.17,31.624 -31.624,31.624c-17.454,0 -31.625,-14.17 -31.625,-31.624c0,-17.454 14.171,-31.625 31.625,-31.625Zm-214.375,47.978l26.57,0l0,13.534l-39.182,0c0,0 -2.619,0 -2.619,0l0,-59.775l15.231,0l0,46.241Zm310.905,13.534l-15.231,0l-25.568,-34.84l0,34.84l-15.231,0l0,-59.775l15.231,0l25.403,34.598l0.165,0.271l0,-34.869l15.231,0l0,59.775Zm-137.583,0l-15.231,0l0,-59.775l15.231,0l0,59.775Zm-25.052,-46.04l-16.828,0l0,46.037l-15.231,0l0,-46.037l-16.828,0l0,-13.738l48.887,0l0,13.738Zm-205.4,-0.022c8.927,0 16.175,7.248 16.175,16.175c0,8.927 -7.248,16.174 -16.175,16.174c-8.927,0 -16.175,-7.247 -16.175,-16.174c0,-8.927 7.248,-16.175 16.175,-16.175Zm271.505,0c8.927,0 16.174,7.248 16.174,16.175c0,8.927 -7.247,16.174 -16.174,16.174c-8.927,0 -16.175,-7.247 -16.175,-16.174c0,-8.927 7.248,-16.175 16.175,-16.175Z"/></g><g><path d="M0.858,65.845c1.24,-3.906 3.884,-7.379 7.709,-9.587l93.491,-53.977c8.137,-4.698 18.556,-1.906 23.254,6.231c4.697,8.136 1.905,18.555 -6.231,23.253l-67.977,39.247l67.977,39.246c8.136,4.698 10.928,15.117 6.231,23.254c-4.698,8.136 -15.117,10.928 -23.254,6.23l-67.958,-39.235l0,78.47c0,9.395 -7.627,17.023 -17.022,17.023c-9.395,0 -17.023,-7.628 -17.023,-17.023l0,-107.954l0,-0.02c0,-1.271 0.142,-2.549 0.434,-3.81l0.002,-0.013l0.001,-0.002l0.001,-0.004l0.005,-0.023c0.103,-0.442 0.224,-0.878 0.36,-1.306Z" style="fill:#ffcd44;"/><path d="M170.026,71.012l-67.977,-39.247c-8.137,-4.698 -10.928,-15.117 -6.231,-23.253c4.698,-8.137 15.117,-10.929 23.253,-6.231l93.492,53.977c3.825,2.208 6.468,5.681 7.708,9.587c0.137,0.428 0.258,0.864 0.361,1.306l0.006,0.029l0.003,0.013c0.291,1.261 0.434,2.539 0.434,3.81l0,0.02l0,107.954c0,9.395 -7.628,17.023 -17.023,17.023c-9.395,0 -17.023,-7.628 -17.023,-17.023l0,-78.47l-67.958,39.235c-8.136,4.698 -18.555,1.906 -23.253,-6.23c-4.697,-8.137 -1.906,-18.556 6.231,-23.254l67.977,-39.246Z" style="fill:#27beff;"/><path d="M110.565,0c2.279,0.002 4.534,0.462 6.624,1.343c0.638,0.27 1.267,0.583 1.882,0.938l0.378,0.218c2.352,1.434 4.389,3.46 5.863,6.013c4.697,8.136 1.905,18.555 -6.231,23.253l-8.516,4.917l-8.516,-4.917c-8.137,-4.698 -10.928,-15.117 -6.231,-23.253c1.474,-2.553 3.51,-4.579 5.863,-6.013l0.377,-0.218c0.616,-0.355 1.244,-0.668 1.883,-0.938c2.09,-0.881 4.345,-1.341 6.624,-1.343Z" style="fill:#007c65;"/><path d="M127.537,203.476l67.977,-39.247c8.137,-4.697 18.556,-1.906 23.254,6.231c4.697,8.136 1.905,18.556 -6.231,23.253l-93.492,53.977c-3.824,2.209 -8.154,2.762 -12.156,1.883c-0.439,-0.096 -0.877,-0.209 -1.312,-0.342l-0.028,-0.008l-0.013,-0.004c-1.237,-0.378 -2.416,-0.894 -3.516,-1.53l-0.017,-0.01l-93.491,-53.977c-8.137,-4.697 -10.929,-15.117 -6.231,-23.253c4.697,-8.137 15.117,-10.928 23.253,-6.231l67.958,39.235l0,-78.471c0,-9.395 7.627,-17.022 17.022,-17.022c9.395,0 17.023,7.627 17.023,17.022l0,78.494Z" style="fill:#ac5ed1;"/><path d="M0.055,177.574c0.196,-2.437 0.923,-4.869 2.226,-7.125c4.697,-8.137 15.117,-10.928 23.253,-6.231l8.566,4.946l0,9.813c0,9.395 -7.627,17.023 -17.022,17.023c-9.395,0 -17.023,-7.628 -17.023,-17.023l0,-1.403Z" style="fill:#9f008c;"/><path d="M187.029,169.128l8.485,-4.899c8.137,-4.697 18.556,-1.906 23.254,6.231c4.697,8.136 1.905,18.556 -6.231,23.253l-0.693,0.4c-2.335,1.206 -4.985,1.887 -7.792,1.887c-9.395,0 -17.023,-7.628 -17.023,-17.023l0,-9.849Z" style="fill:#5f1dc0;"/><path d="M103.032,109.69l7.533,-4.349l8.516,4.917c5.882,3.396 8.971,9.783 8.456,16.136l0,8.461l-8.085,4.667c-0.731,0.446 -1.493,0.835 -2.278,1.165c-2.139,0.904 -4.385,1.338 -6.609,1.336c-2.224,0.002 -4.47,-0.431 -6.609,-1.336c-0.785,-0.33 -1.547,-0.719 -2.279,-1.165l-8.185,-4.726l0,-9.814c0,-6.711 3.892,-12.52 9.54,-15.292Z" style="fill:#2b0067;"/></g></g></svg>